<?xml version="1.0" standalone="no"?>
<!DOCTYPE svg PUBLIC "-//W3C//DTD SVG 20010904//EN"
 "http://www.w3.org/TR/2001/REC-SVG-20010904/DTD/svg10.dtd">
<svg version="1.0" xmlns="http://www.w3.org/2000/svg"
 width="3084.000000pt" height="3084.000000pt" viewBox="0 0 3084.000000 3084.000000"
 preserveAspectRatio="xMidYMid meet">
<metadata>
Created by potrace 1.14, written by Peter Selinger 2001-2017
</metadata>
<g transform="translate(0.000000,3084.000000) scale(0.100000,-0.100000)"
fill="#000000" stroke="none">
<path d="M4827 25594 c-1 -1 -99 -5 -217 -9 -118 -4 -233 -8 -255 -10 -22 -1
-94 -5 -160 -9 -66 -4 -131 -9 -145 -11 -14 -2 -59 -7 -100 -10 -41 -4 -82 -8
-90 -10 -8 -1 -49 -6 -90 -10 -41 -4 -133 -16 -205 -26 -71 -11 -163 -24 -203
-30 -57 -8 -355 -68 -522 -105 -322 -71 -783 -232 -1080 -378 -217 -106 -447
-240 -545 -318 -5 -4 -55 -43 -111 -85 -215 -165 -372 -321 -530 -525 -308
-399 -493 -874 -551 -1413 -10 -85 -11 -544 -2 -625 5 -47 11 -105 13 -130 5
-46 33 -238 40 -275 3 -11 14 -67 26 -125 25 -121 23 -112 48 -210 71 -273
176 -587 273 -815 144 -342 314 -687 471 -960 22 -38 49 -86 60 -105 55 -96
203 -335 210 -338 4 -2 8 -8 8 -13 0 -13 327 -507 350 -529 3 -3 20 -27 39
-55 64 -93 407 -548 482 -639 5 -6 30 -38 57 -71 26 -33 52 -65 57 -71 6 -6
26 -30 45 -54 43 -53 251 -301 265 -316 5 -6 29 -33 52 -61 24 -27 53 -61 65
-75 13 -13 52 -58 88 -98 36 -40 76 -85 90 -100 14 -15 56 -62 94 -104 38 -42
94 -103 125 -136 31 -32 117 -122 191 -201 156 -165 1609 -1619 1817 -1819
120 -115 263 -250 372 -350 165 -152 258 -237 381 -345 189 -167 216 -190 286
-250 32 -27 65 -57 74 -65 8 -8 40 -35 70 -60 30 -25 60 -49 66 -55 6 -5 35
-30 64 -55 30 -25 64 -54 77 -65 18 -15 31 -50 54 -139 47 -187 161 -577 189
-641 4 -11 23 -63 41 -115 66 -194 159 -422 271 -670 39 -84 218 -445 249
-500 137 -243 186 -327 282 -480 61 -96 113 -177 116 -180 3 -3 24 -32 46 -65
57 -86 205 -290 261 -361 27 -33 58 -73 69 -88 11 -16 25 -33 30 -40 6 -6 28
-34 50 -61 222 -280 695 -773 964 -1005 35 -30 74 -64 87 -75 266 -239 738
-581 1104 -802 161 -97 190 -114 375 -215 293 -160 741 -362 1055 -474 52 -19
104 -39 115 -44 33 -15 320 -106 470 -149 285 -82 613 -156 905 -205 19 -4 46
-8 60 -11 14 -2 45 -7 70 -10 25 -3 72 -10 105 -15 83 -13 305 -38 395 -45 41
-3 93 -8 115 -10 272 -27 963 -27 1295 0 97 8 272 25 310 30 14 2 50 6 80 10
30 4 66 8 80 10 14 2 61 9 105 15 120 17 307 51 520 94 78 16 231 52 343 81
l133 34 177 -70 c97 -38 186 -74 197 -79 11 -5 61 -25 110 -43 227 -85 345
-130 400 -152 93 -37 573 -211 665 -241 25 -8 54 -19 65 -24 57 -25 785 -267
1070 -355 83 -26 175 -55 205 -65 70 -23 631 -186 810 -235 74 -20 164 -45
200 -55 55 -16 394 -104 440 -115 8 -2 119 -29 245 -60 127 -31 239 -58 250
-61 11 -2 52 -11 90 -19 39 -9 81 -18 95 -21 14 -3 41 -9 60 -14 19 -5 46 -11
60 -14 14 -2 48 -10 75 -16 28 -6 61 -14 75 -16 14 -2 36 -7 50 -10 33 -8 24
-6 255 -53 110 -22 241 -47 290 -56 50 -9 140 -25 200 -36 61 -11 126 -22 145
-25 19 -3 46 -7 60 -10 14 -2 39 -7 55 -10 17 -3 41 -7 55 -10 14 -2 41 -7 60
-9 19 -3 78 -12 130 -20 52 -8 113 -17 135 -20 22 -3 51 -8 65 -10 14 -3 48
-7 75 -10 28 -3 75 -10 105 -15 30 -5 80 -12 110 -15 30 -3 69 -8 85 -10 57
-8 290 -34 355 -40 36 -3 81 -8 100 -10 77 -9 139 -15 210 -21 41 -3 98 -7
125 -9 48 -4 196 -15 280 -20 36 -3 212 -11 415 -21 92 -4 798 -4 895 1 222
10 354 18 495 30 30 3 87 7 125 10 39 3 81 8 95 10 14 2 50 7 80 10 66 7 275
34 310 41 14 2 45 7 70 10 25 3 54 8 65 10 11 2 70 13 130 24 561 105 1017
250 1450 460 154 75 369 192 385 210 3 3 45 32 94 65 124 83 120 80 231 170
98 78 303 276 380 365 210 246 385 551 496 868 28 78 93 316 104 382 12 72 15
87 20 130 3 25 7 52 10 60 19 66 27 548 12 710 -7 83 -10 106 -22 200 -101
778 -466 1708 -1028 2620 -62 100 -96 154 -104 166 -15 19 -33 49 -40 64 -4 8
-11 20 -15 25 -5 6 -67 98 -140 205 -72 107 -169 248 -217 314 -47 65 -97 134
-110 154 -13 20 -31 43 -38 51 -8 7 -22 26 -31 40 -9 14 -24 35 -34 46 -9 11
-68 88 -132 170 -64 83 -129 166 -144 185 -37 47 -284 344 -291 350 -3 3 -38
44 -78 91 -39 48 -78 93 -85 100 -7 8 -44 50 -83 94 -71 81 -110 125 -201 224
-28 31 -68 76 -90 100 -257 287 -1914 1950 -2295 2303 -179 166 -259 239 -284
262 -16 15 -51 46 -76 69 -46 42 -166 150 -205 184 -105 91 -150 130 -163 143
-9 9 -47 43 -86 75 -38 33 -85 74 -105 92 -19 17 -48 42 -65 54 -16 13 -32 26
-35 30 -3 3 -77 66 -165 139 -88 73 -180 149 -205 170 -55 46 -258 211 -325
265 -28 22 -55 44 -61 50 -6 5 -46 37 -89 70 -67 52 -165 129 -215 168 -9 7
-54 41 -100 77 -47 36 -92 70 -100 77 -213 172 -1322 974 -1542 1115 -14 10
-41 43 -59 75 -71 127 -174 298 -181 301 -5 2 -8 8 -8 13 0 7 -40 72 -105 169
-5 9 -19 31 -30 49 -33 54 -254 362 -309 431 -28 36 -71 91 -95 123 -41 54
-208 256 -221 267 -3 3 -32 37 -65 75 -151 177 -588 615 -722 725 -16 14 -57
48 -89 77 -32 28 -72 64 -89 78 -67 59 -388 308 -509 395 -471 338 -1031 654
-1561 880 -270 115 -651 252 -925 334 -158 47 -547 144 -650 162 -14 2 -36 7
-50 9 -14 3 -38 8 -55 11 -16 2 -38 7 -48 10 -10 3 -30 7 -45 9 -15 3 -38 7
-52 9 -13 3 -42 8 -65 11 -22 3 -62 10 -90 15 -27 5 -74 12 -104 15 -30 4 -61
8 -70 10 -17 3 -102 14 -161 20 -115 13 -141 15 -195 20 -285 25 -394 29 -755
30 -201 0 -417 -4 -480 -8 -174 -11 -263 -18 -289 -22 -13 -2 -62 11 -110 29
-224 86 -504 192 -576 218 -224 83 -660 238 -668 238 -5 0 -23 6 -40 14 -86
39 -1283 424 -1402 452 -5 1 -66 19 -135 39 -326 96 -1020 283 -1190 320 -8 2
-73 18 -145 35 -123 30 -495 116 -540 124 -11 3 -53 12 -92 20 -40 9 -85 18
-100 21 -16 3 -37 7 -48 9 -50 11 -182 38 -200 42 -103 20 -426 81 -535 100
-47 8 -96 17 -110 19 -27 5 -342 55 -375 60 -11 1 -74 10 -140 19 -123 17
-161 23 -205 31 -14 2 -52 7 -85 10 -33 4 -76 9 -95 11 -19 3 -51 7 -70 9 -19
2 -53 6 -75 9 -39 5 -212 24 -284 31 -20 2 -70 7 -111 10 -41 4 -90 8 -109 11
-19 2 -75 6 -125 10 -50 3 -107 7 -126 9 -19 2 -87 7 -150 10 -63 4 -140 8
-170 10 -168 10 -896 25 -903 19z m708 -148 c151 -6 266 -13 385 -21 41 -3
111 -7 155 -10 44 -3 103 -7 131 -10 29 -2 83 -7 120 -10 80 -7 154 -14 204
-20 19 -3 60 -7 90 -10 88 -8 152 -15 190 -20 19 -2 91 -11 160 -20 69 -9 170
-22 225 -30 55 -8 120 -17 145 -20 25 -3 70 -10 100 -15 30 -5 75 -12 100 -15
25 -4 113 -18 195 -31 83 -14 166 -27 185 -30 19 -3 53 -9 75 -14 22 -5 56
-11 75 -15 19 -3 58 -10 85 -15 28 -5 61 -11 75 -14 14 -2 75 -14 135 -26 61
-12 121 -24 135 -26 22 -4 200 -41 240 -49 8 -2 58 -13 110 -24 52 -11 158
-34 235 -51 77 -17 147 -33 156 -35 29 -6 232 -55 314 -76 44 -12 89 -23 100
-25 20 -4 408 -104 570 -147 223 -60 742 -208 795 -227 14 -5 72 -23 130 -40
578 -173 1506 -490 2091 -714 80 -31 152 -56 159 -56 18 0 3 -13 -18 -16 -9
-1 -55 -8 -102 -14 -47 -7 -98 -14 -115 -16 -16 -2 -54 -8 -83 -14 -50 -9 -61
-6 -230 51 -528 180 -954 316 -1412 450 -270 80 -568 164 -610 174 -8 1 -42
10 -75 20 -114 31 -770 196 -900 226 -71 16 -137 31 -145 33 -25 7 -633 136
-660 141 -14 3 -36 7 -50 9 -14 2 -59 11 -100 19 -94 19 -284 55 -330 62 -19
3 -42 8 -50 10 -8 2 -37 6 -63 10 -26 3 -71 10 -100 16 -74 14 -294 48 -442
69 -44 6 -91 13 -105 16 -14 2 -43 7 -65 9 -52 7 -268 34 -320 40 -22 3 -56 7
-75 10 -55 7 -131 15 -180 19 -25 2 -66 7 -90 10 -25 3 -74 8 -110 11 -36 3
-87 7 -115 10 -27 2 -84 7 -125 10 -41 3 -95 8 -120 10 -25 2 -97 6 -160 10
-63 4 -144 8 -180 10 -367 22 -996 22 -1365 0 -89 -5 -255 -16 -295 -20 -19
-2 -69 -6 -110 -10 -41 -4 -86 -8 -100 -10 -14 -2 -54 -7 -90 -10 -36 -4 -74
-9 -85 -11 -11 -2 -45 -6 -75 -9 -30 -3 -77 -10 -105 -15 -27 -5 -68 -12 -90
-15 -36 -5 -74 -11 -130 -21 -11 -2 -47 -9 -80 -14 -33 -6 -91 -17 -130 -26
-38 -8 -79 -16 -90 -18 -232 -44 -689 -184 -955 -293 -144 -59 -483 -224 -510
-248 -9 -8 -20 -15 -24 -15 -3 0 -50 -27 -104 -61 -267 -168 -509 -370 -684
-572 -29 -34 -60 -68 -68 -77 -26 -27 -145 -192 -192 -265 -202 -318 -336
-678 -393 -1055 -27 -183 -35 -296 -35 -500 1 -171 7 -281 25 -427 3 -24 7
-60 10 -80 6 -52 32 -203 51 -293 9 -41 18 -86 20 -100 5 -24 49 -196 79 -305
100 -365 353 -973 570 -1370 18 -33 44 -80 57 -105 13 -25 64 -114 113 -198
50 -84 95 -161 100 -171 23 -39 127 -208 142 -228 8 -13 13 -23 10 -23 -12 0
-302 424 -482 705 -51 79 -115 189 -115 197 0 4 -3 8 -8 8 -4 0 -16 17 -27 38
-11 20 -29 53 -41 72 -11 19 -34 60 -51 90 -16 30 -54 98 -83 150 -134 242
-304 602 -420 895 -44 111 -164 454 -176 504 -2 9 -21 83 -43 165 -22 82 -42
160 -45 175 -2 14 -11 60 -20 101 -8 41 -18 89 -20 105 -23 137 -36 232 -41
300 -4 44 -8 91 -11 105 -6 32 -5 443 0 495 3 22 8 68 11 102 7 67 6 66 29
193 52 291 151 569 288 810 66 114 64 111 137 215 98 139 166 220 291 345 278
279 621 507 1060 703 198 89 576 217 800 271 36 9 81 21 100 26 36 10 292 65
345 74 45 8 286 47 315 51 126 19 289 39 415 51 39 3 84 8 100 10 17 1 77 6
135 9 58 4 121 9 140 11 19 2 125 6 235 10 110 4 201 7 202 8 5 4 650 -3 778
-8z m545 -551 c102 -4 208 -8 235 -10 28 -1 104 -6 170 -9 66 -4 136 -9 155
-11 19 -2 71 -7 115 -10 44 -3 100 -8 125 -10 118 -12 158 -16 195 -20 22 -2
69 -7 105 -10 36 -3 81 -8 100 -10 19 -3 55 -7 80 -10 25 -3 59 -7 75 -10 17
-2 55 -6 85 -10 30 -3 100 -12 155 -20 55 -8 123 -17 150 -20 28 -3 60 -8 72
-10 12 -3 41 -7 65 -10 24 -3 81 -12 128 -20 47 -7 103 -17 125 -20 51 -7 82
-12 180 -30 44 -8 96 -17 115 -20 41 -7 134 -23 170 -30 14 -3 52 -10 85 -15
33 -6 80 -15 105 -20 25 -5 56 -12 70 -14 54 -10 331 -66 445 -91 66 -15 129
-28 140 -31 17 -3 34 -7 85 -19 3 -1 32 -7 65 -14 33 -7 103 -24 156 -37 53
-13 105 -25 115 -27 11 -2 30 -7 44 -10 14 -4 106 -27 205 -51 232 -57 513
-130 640 -165 196 -56 330 -93 345 -96 171 -39 1543 -475 1555 -495 3 -5 -21
-14 -52 -20 -32 -7 -119 -27 -193 -45 l-135 -34 -95 30 c-340 107 -1085 313
-1490 412 -208 51 -473 114 -510 120 -14 3 -43 10 -65 15 -22 6 -85 21 -140
32 -55 12 -107 23 -115 25 -8 2 -96 20 -195 40 -99 20 -187 38 -195 40 -31 6
-246 47 -270 51 -14 3 -50 9 -80 15 -87 16 -90 17 -190 33 -52 9 -106 18 -120
21 -14 3 -70 12 -125 20 -55 8 -111 17 -125 20 -39 7 -369 54 -425 60 -27 3
-61 8 -75 10 -14 2 -50 7 -80 10 -30 4 -64 8 -75 10 -11 1 -42 5 -70 8 -27 4
-75 9 -105 12 -30 2 -98 10 -150 15 -136 15 -172 19 -258 25 -43 4 -93 8 -112
10 -30 3 -144 11 -295 20 -49 3 -295 16 -390 21 -100 4 -844 4 -947 0 -178 -8
-334 -17 -363 -21 -16 -2 -74 -7 -128 -10 -54 -4 -106 -8 -115 -10 -9 -1 -51
-6 -92 -10 -41 -3 -86 -8 -100 -10 -14 -2 -47 -7 -75 -10 -88 -10 -168 -21
-255 -35 -30 -5 -71 -11 -90 -14 -28 -4 -219 -41 -370 -72 -14 -3 -88 -21
-165 -40 -77 -19 -147 -36 -155 -38 -142 -34 -488 -153 -680 -234 -153 -65
-382 -178 -484 -239 -81 -49 -260 -164 -266 -172 -3 -4 -18 -15 -35 -25 -38
-25 -209 -161 -255 -204 -302 -285 -472 -507 -628 -822 -75 -150 -90 -185
-122 -280 -12 -36 -26 -74 -30 -85 -27 -64 -90 -334 -106 -450 -3 -27 -8 -59
-10 -70 -26 -136 -26 -694 1 -856 2 -13 6 -46 10 -74 3 -27 10 -72 15 -100 5
-27 11 -66 14 -85 8 -54 45 -226 68 -315 11 -44 21 -87 23 -95 4 -23 30 -106
95 -305 63 -194 145 -407 242 -630 56 -128 273 -564 327 -660 13 -22 60 -103
104 -180 44 -77 106 -182 139 -233 32 -51 58 -96 58 -99 0 -4 6 -14 13 -22 18
-21 60 -91 54 -91 -2 0 -21 26 -43 58 -21 31 -42 62 -47 67 -35 47 -111 157
-203 295 -586 873 -988 1719 -1180 2480 -14 58 -28 116 -30 130 -3 14 -11 57
-19 95 -8 39 -16 84 -19 100 -14 83 -28 174 -31 209 -3 21 -7 55 -9 75 -24
169 -24 545 -1 721 3 19 7 58 11 85 3 28 12 80 20 117 7 37 16 82 19 100 14
81 74 275 126 405 25 62 108 236 150 313 37 66 187 286 224 326 5 6 30 36 55
65 187 223 470 455 780 639 121 71 368 194 485 240 44 17 94 37 110 44 83 36
403 144 477 161 12 3 75 19 138 35 130 34 396 94 486 109 32 5 98 16 145 25
48 8 108 18 135 21 27 4 61 8 75 11 15 2 47 6 70 9 24 3 58 8 74 10 17 2 62 6
100 10 39 3 86 8 105 10 74 10 128 15 215 21 161 11 197 12 395 20 107 3 196
7 197 8 6 5 609 -2 773 -9z m565 -549 c237 -11 349 -17 400 -21 28 -3 86 -7
130 -10 44 -2 103 -7 130 -10 28 -2 82 -7 120 -10 67 -6 107 -9 198 -20 51 -6
108 -11 202 -20 39 -4 81 -8 95 -11 14 -2 81 -11 150 -19 117 -15 377 -50 445
-61 50 -8 76 -12 160 -24 44 -7 89 -14 99 -16 11 -2 103 -17 205 -34 102 -17
187 -33 190 -34 3 -2 26 -7 51 -10 58 -8 51 -7 372 -71 221 -44 439 -91 703
-151 11 -2 29 -6 40 -8 11 -3 52 -12 90 -21 39 -9 77 -18 85 -20 8 -2 71 -17
140 -35 69 -18 132 -33 140 -35 30 -6 377 -96 450 -116 41 -11 83 -22 93 -24
27 -6 343 -94 412 -115 33 -10 126 -37 208 -61 81 -23 145 -44 142 -47 -2 -3
-96 -35 -207 -72 -263 -88 -490 -173 -663 -250 -22 -10 -74 -32 -115 -50 -166
-72 -522 -252 -717 -363 -192 -110 -605 -371 -677 -428 -6 -5 -76 -57 -156
-117 -148 -109 -378 -290 -409 -320 -9 -9 -79 -71 -156 -137 -77 -66 -243
-223 -370 -350 -226 -226 -320 -326 -428 -458 -18 -21 -49 -57 -70 -80 -21
-23 -108 -132 -193 -242 -85 -110 -158 -204 -162 -210 -22 -29 -202 -286 -202
-290 0 -2 -31 -50 -68 -107 -197 -296 -451 -765 -601 -1108 -35 -80 -70 -158
-77 -175 -13 -31 -73 -181 -117 -295 -92 -238 -206 -606 -281 -911 -69 -279
-93 -401 -151 -749 -2 -14 -7 -45 -10 -69 -3 -23 -7 -55 -9 -70 -13 -83 -17
-111 -21 -161 -3 -30 -7 -71 -10 -90 -3 -19 -7 -69 -10 -110 -4 -41 -8 -91
-10 -110 -26 -245 -26 -1039 -1 -1300 2 -19 7 -71 11 -115 4 -44 8 -93 10
-110 2 -16 7 -52 10 -80 13 -113 16 -141 20 -165 3 -14 7 -45 10 -70 3 -25 13
-93 23 -152 l18 -107 -41 33 c-22 17 -60 48 -85 67 -24 19 -50 40 -58 46 -7 7
-41 34 -75 60 -167 127 -948 770 -987 813 -3 3 -36 32 -75 65 -76 66 -73 63
-295 261 -85 76 -160 143 -166 148 -6 6 -46 43 -89 81 -90 80 -325 313 -400
396 -28 30 -85 94 -127 141 -43 47 -88 98 -100 113 -12 15 -31 37 -42 49 -12
12 -32 35 -46 51 -14 17 -50 59 -80 95 -30 36 -57 67 -60 70 -18 18 -176 210
-280 340 -69 85 -127 157 -130 160 -3 3 -17 21 -30 40 -14 19 -32 44 -42 55
-9 11 -69 90 -132 175 -64 85 -119 160 -124 165 -58 73 -512 745 -512 758 0 3
-25 45 -56 93 -31 49 -60 98 -65 109 -5 11 -18 34 -29 50 -10 17 -25 41 -33
55 -8 14 -46 84 -86 155 -233 416 -470 954 -592 1345 -33 103 -101 351 -114
410 -34 163 -48 236 -64 340 -18 114 -24 169 -37 315 -2 28 -5 127 -5 220 -2
248 15 437 57 635 152 714 556 1284 1204 1701 235 151 444 258 700 359 74 29
144 56 155 61 11 4 65 22 120 40 55 17 109 34 120 39 31 12 278 80 345 95 8 2
65 15 125 28 233 53 606 116 777 132 29 3 69 7 88 10 19 2 64 7 100 10 36 3
85 8 110 10 145 15 259 22 510 31 91 4 166 7 167 8 5 4 703 -2 818 -8z m8345
-810 c30 -2 93 -7 140 -11 47 -3 103 -8 125 -10 22 -2 69 -7 105 -10 36 -3 79
-8 95 -10 17 -3 53 -7 80 -10 28 -3 57 -8 65 -10 8 -2 41 -6 72 -10 52 -5 79
-10 221 -34 201 -35 396 -75 522 -108 33 -8 67 -16 75 -18 199 -40 801 -234
1025 -330 17 -7 62 -25 100 -40 39 -15 93 -38 120 -50 28 -13 84 -37 125 -55
75 -32 434 -210 500 -247 19 -11 62 -35 95 -53 172 -94 368 -212 373 -222 2
-5 8 -8 13 -8 6 0 22 -8 37 -19 15 -10 81 -54 147 -97 151 -100 309 -213 450
-323 61 -47 117 -91 125 -97 32 -25 215 -178 220 -184 3 -3 39 -34 80 -69 197
-167 570 -539 742 -741 26 -30 59 -68 73 -85 35 -39 191 -231 230 -280 17 -22
50 -65 75 -97 110 -140 347 -483 404 -583 9 -16 34 -57 55 -90 21 -33 37 -61
36 -63 -1 -2 -90 55 -196 126 -225 149 -310 205 -324 212 -5 3 -59 38 -120 77
-97 64 -119 84 -185 169 -104 134 -170 214 -245 299 -14 17 -40 47 -58 68
-206 248 -730 749 -992 949 -33 25 -70 54 -82 64 -12 11 -35 29 -50 41 -15 12
-44 34 -65 50 -59 46 -285 205 -351 248 -34 21 -111 71 -172 110 -324 210
-729 422 -1120 587 -77 32 -149 63 -160 68 -85 39 -461 168 -665 229 -114 34
-170 49 -320 87 -23 5 -193 45 -210 49 -130 27 -221 46 -245 50 -148 28 -259
46 -305 50 -30 4 -62 8 -71 11 -9 2 -39 7 -65 9 -27 3 -65 7 -84 10 -44 6
-106 13 -195 20 -38 3 -81 8 -95 10 -14 2 -80 6 -147 10 -121 5 -155 13 -249
55 -27 12 -62 28 -79 35 -16 7 -68 28 -115 48 -47 19 -125 52 -175 72 -49 21
-108 45 -130 55 -22 9 -79 32 -127 51 -49 19 -88 37 -88 40 0 3 33 7 72 8 40
1 74 4 76 6 6 5 744 -3 812 -9z m-977 -152 c171 -70 348 -142 392 -160 l80
-33 -90 -1 c-49 -1 -143 -3 -208 -6 l-117 -5 -313 116 c-448 167 -447 166
-447 170 0 2 8 3 18 3 9 0 37 2 62 6 83 13 95 15 160 21 36 4 66 8 67 8 1 1
20 3 42 5 33 2 102 -22 354 -124z m-763 -49 c102 -37 254 -92 338 -123 l153
-57 -53 -7 c-29 -4 -80 -10 -113 -13 -33 -4 -71 -8 -85 -10 -14 -2 -45 -6 -70
-10 -25 -3 -57 -8 -71 -11 -17 -3 -131 30 -330 96 -167 56 -326 107 -354 114
l-50 13 55 16 c30 8 73 18 95 23 22 4 42 8 45 9 7 1 80 16 110 22 89 17 107
19 125 12 11 -5 103 -38 205 -74z m-775 -104 c363 -115 544 -176 537 -182 -4
-4 -25 -9 -48 -12 -22 -3 -92 -18 -155 -32 -62 -14 -123 -27 -134 -29 -48 -10
-267 -69 -393 -107 -843 -252 -1596 -620 -2312 -1129 -123 -87 -431 -324 -472
-363 -7 -7 -42 -37 -78 -67 -166 -141 -239 -209 -460 -431 -202 -203 -225
-227 -325 -344 -33 -38 -67 -77 -75 -86 -8 -9 -27 -29 -41 -45 -137 -154 -432
-555 -602 -819 -349 -541 -665 -1202 -844 -1764 -38 -120 -76 -246 -75 -248 1
-2 -6 -22 -14 -45 -9 -24 -18 -54 -20 -68 -3 -14 -13 -54 -23 -90 -18 -60 -28
-102 -36 -140 -2 -8 -10 -42 -18 -75 -9 -33 -18 -71 -21 -85 -2 -14 -11 -56
-20 -95 -9 -38 -18 -83 -21 -100 -3 -16 -14 -79 -25 -140 -23 -131 -26 -148
-39 -245 -6 -41 -13 -95 -17 -120 -3 -25 -7 -56 -9 -70 -1 -14 -5 -50 -9 -80
-3 -30 -8 -86 -12 -125 -3 -38 -7 -86 -9 -105 -26 -244 -26 -1054 0 -1255 2
-16 7 -65 10 -107 3 -42 8 -85 10 -95 1 -11 6 -50 10 -88 3 -39 10 -97 15
-130 5 -33 12 -80 15 -105 22 -160 88 -501 126 -654 11 -43 18 -80 17 -82 -3
-3 -196 136 -248 179 -9 6 -54 41 -102 77 l-87 65 -12 65 c-17 91 -18 100 -24
140 -3 20 -7 45 -9 55 -2 11 -9 56 -16 100 -6 44 -13 91 -15 105 -2 14 -7 50
-10 80 -3 30 -8 66 -10 80 -4 25 -21 207 -30 310 -15 179 -20 321 -20 620 0
422 11 628 50 960 3 19 7 60 10 90 3 30 8 66 10 80 2 14 7 45 10 70 8 59 14
99 20 130 3 14 7 40 10 58 5 32 11 68 21 127 13 79 88 420 115 524 96 371 261
867 365 1099 13 29 24 55 24 57 0 2 13 34 30 70 16 36 30 68 30 70 0 9 98 214
177 370 87 172 250 464 358 638 44 71 254 388 277 417 11 14 56 75 101 135 46
61 90 119 99 130 9 11 54 67 100 125 248 312 732 817 974 1017 22 17 57 48 79
68 102 92 493 398 616 482 24 16 80 54 124 84 191 131 519 329 710 429 44 23
84 46 89 51 6 5 18 9 27 9 10 0 19 4 21 8 4 10 195 103 394 192 327 147 660
270 1009 374 142 42 188 54 195 51 3 -1 50 -17 105 -34z m2600 -293 c421 -186
814 -365 1099 -502 87 -42 160 -76 163 -76 6 0 921 -456 1098 -548 212 -110
433 -226 505 -265 30 -16 93 -50 140 -75 47 -25 111 -60 143 -78 32 -19 60
-34 61 -34 2 0 39 -19 82 -43 44 -24 104 -57 134 -74 81 -45 142 -79 270 -151
63 -36 140 -79 170 -95 30 -17 83 -48 118 -69 34 -21 64 -38 66 -38 2 0 88
-49 191 -110 103 -60 192 -110 196 -110 5 0 9 -4 9 -10 0 -5 5 -10 11 -10 6 0
31 -13 56 -30 24 -16 46 -30 48 -30 6 0 300 -176 375 -225 36 -23 70 -44 75
-46 6 -2 49 -28 95 -57 47 -29 94 -59 104 -65 205 -127 303 -188 312 -195 5
-5 21 -15 34 -22 30 -16 38 -25 70 -70 l25 -35 -35 23 c-55 35 -385 234 -433
261 -23 13 -58 33 -77 46 -67 44 -758 441 -887 511 -37 20 -72 39 -78 44 -5 4
-44 25 -85 47 -41 22 -95 52 -120 65 -110 62 -493 267 -675 363 -49 26 -142
75 -205 108 -135 71 -997 502 -1150 575 -58 27 -139 66 -180 85 -41 19 -132
62 -202 96 -70 33 -129 61 -132 61 -2 0 -50 22 -107 49 -133 62 -203 94 -309
141 -47 21 -110 49 -140 63 -170 77 -765 333 -960 411 -63 26 -128 53 -145 61
-16 7 -111 46 -210 85 -99 40 -182 74 -185 77 -3 3 92 3 210 1 l215 -5 240
-105z m-715 -23 c375 -149 888 -361 1135 -470 17 -8 50 -22 75 -33 328 -144
843 -377 1125 -512 61 -29 148 -70 195 -92 175 -83 907 -447 958 -477 28 -17
52 -28 52 -25 0 4 6 2 13 -3 6 -6 84 -47 172 -93 222 -115 739 -391 803 -429
29 -17 54 -31 56 -31 2 0 55 -29 117 -63 134 -75 183 -103 302 -169 120 -66
483 -276 529 -305 21 -12 40 -23 43 -23 3 0 35 -19 72 -43 38 -24 82 -50 98
-59 45 -22 752 -451 798 -483 18 -12 67 -78 67 -89 0 -3 -51 26 -112 63 -62
38 -221 131 -353 208 -244 143 -264 154 -370 213 -33 18 -68 40 -77 48 -10 8
-18 12 -18 8 0 -4 -12 1 -27 12 -39 27 -596 335 -818 452 -55 29 -113 60 -130
70 -35 20 -270 142 -550 287 -325 167 -937 470 -1205 596 -144 67 -582 269
-695 320 -55 24 -121 54 -147 66 -209 94 -715 312 -978 420 -69 29 -134 56
-145 61 -77 34 -679 271 -850 335 -49 18 -115 43 -145 55 -30 11 -185 68 -345
126 -372 135 -392 143 -380 144 6 1 33 3 60 6 28 2 68 6 90 9 22 3 83 8 135
11 52 4 96 8 98 9 12 11 96 -18 352 -120z m1062 80 c13 -2 50 -6 83 -10 32 -4
66 -8 75 -10 8 -1 37 -6 64 -9 285 -39 761 -145 1077 -241 247 -76 580 -194
716 -256 24 -10 45 -19 48 -19 3 0 24 -9 48 -19 23 -11 98 -45 167 -76 595
-268 1234 -674 1749 -1109 58 -50 108 -92 111 -95 3 -4 23 -21 45 -40 63 -53
309 -287 384 -365 161 -168 221 -232 301 -325 30 -35 60 -69 65 -75 6 -6 19
-22 30 -36 l20 -24 -40 24 c-22 13 -59 36 -82 52 -23 15 -44 28 -48 28 -4 0
-25 12 -48 28 -23 15 -51 32 -62 39 -11 7 -141 85 -290 174 -148 89 -282 170
-297 180 -15 11 -29 19 -32 19 -2 0 -40 21 -83 46 -175 104 -635 366 -783 447
-30 16 -95 52 -145 80 -137 76 -543 295 -700 377 -77 40 -182 95 -234 122
-124 66 -931 470 -1096 548 -319 153 -552 262 -745 350 -106 49 -150 68 -300
136 -30 14 -77 36 -105 49 l-50 25 67 -6 c37 -3 77 -7 90 -9z m-1977 -85 c50
-17 108 -37 130 -45 155 -51 818 -298 1205 -448 475 -185 1343 -550 1705 -717
39 -17 84 -38 100 -45 32 -14 354 -161 465 -213 36 -16 121 -56 190 -89 69
-33 152 -73 185 -88 308 -142 1234 -613 1750 -890 298 -160 330 -178 352 -191
12 -7 52 -30 90 -50 37 -21 82 -45 98 -54 483 -272 873 -499 1226 -711 l196
-119 67 -117 c96 -169 281 -542 359 -723 60 -142 124 -300 131 -325 2 -5 6
-17 9 -25 14 -32 86 -240 120 -345 106 -324 190 -670 262 -1080 8 -48 23 -146
30 -195 3 -25 8 -56 10 -70 2 -14 7 -50 10 -80 3 -30 7 -68 9 -85 2 -16 7 -68
11 -115 4 -47 9 -92 10 -101 26 -140 26 -955 0 -1239 -2 -19 -6 -66 -9 -105
-4 -38 -9 -89 -11 -112 -13 -110 -16 -140 -20 -163 -2 -14 -6 -47 -10 -75 -8
-65 -44 -287 -56 -345 -5 -25 -11 -58 -14 -75 -53 -324 -277 -1079 -408 -1377
-8 -18 -25 -58 -37 -88 -94 -230 -264 -581 -388 -800 -58 -102 -176 -297 -198
-327 -13 -17 -24 -34 -24 -37 0 -22 -380 -559 -457 -646 -7 -8 -29 -35 -49
-60 -32 -41 -74 -91 -133 -160 -39 -45 -106 -122 -124 -144 -147 -170 -462
-479 -667 -656 -14 -12 -49 -43 -79 -68 -30 -26 -59 -52 -65 -57 -32 -31 -345
-271 -445 -342 -64 -45 -120 -86 -126 -90 -16 -14 -366 -238 -420 -269 -27
-16 -57 -33 -67 -39 -159 -94 -643 -343 -703 -362 -11 -3 -47 -18 -80 -34
-156 -73 -574 -231 -610 -231 -17 0 -690 247 -780 286 -16 8 -46 19 -65 26
-19 7 -50 19 -68 27 -18 8 -61 25 -95 37 -99 37 -522 210 -777 318 -129 55
-245 103 -257 105 -13 3 -23 9 -23 14 0 5 -7 9 -16 9 -9 0 -28 6 -42 14 -29
15 -53 25 -217 96 -60 26 -145 64 -188 84 -43 20 -80 36 -82 36 -3 0 -201 90
-575 262 -65 30 -244 115 -495 236 -252 121 -1085 541 -1115 562 -14 10 -29
18 -33 18 -12 1 -476 248 -802 427 -22 12 -67 37 -100 55 -94 51 -386 216
-425 239 -19 11 -42 24 -50 28 -8 4 -49 27 -90 51 -41 25 -97 57 -125 72 -136
74 -947 560 -1125 674 -19 13 -84 54 -145 91 -357 223 -1275 827 -1310 862 -8
7 -16 13 -20 13 -10 0 -818 571 -840 594 -16 17 -57 153 -71 236 -3 14 -7 33
-10 42 -3 10 -8 30 -10 45 -3 15 -14 63 -24 108 -10 44 -23 107 -29 140 -6 33
-13 71 -16 85 -3 14 -8 41 -11 60 -2 19 -7 46 -10 60 -2 14 -6 36 -9 50 -3 14
-7 45 -10 70 -3 25 -7 59 -10 75 -12 75 -39 320 -49 445 -32 372 -28 1026 9
1355 3 28 8 77 11 110 3 33 7 71 9 85 2 14 7 48 10 75 4 28 8 61 10 75 2 14 7
45 10 70 7 50 9 61 35 210 37 206 60 311 111 515 78 312 199 696 280 890 5 11
22 54 38 95 16 41 37 93 47 115 10 22 19 45 20 50 6 28 167 362 251 525 53
102 101 195 107 207 6 13 14 23 19 23 4 0 7 4 7 10 0 5 17 38 38 72 21 35 41
68 43 74 2 5 42 70 89 143 47 73 94 147 105 164 23 39 286 410 295 417 3 3 48
59 100 125 52 66 99 125 105 131 5 6 33 37 60 69 28 32 55 63 60 69 6 6 25 29
44 51 52 62 268 290 344 364 130 126 204 196 243 231 48 44 161 141 193 166
13 10 31 26 40 36 13 13 101 84 156 125 6 5 42 33 80 64 163 130 465 337 724
496 471 290 1057 557 1619 738 92 29 366 109 412 119 8 2 33 9 55 14 22 6 51
13 65 16 14 3 95 21 180 40 220 50 430 84 460 76 14 -4 66 -22 115 -40z m8001
-3462 c122 -81 228 -156 235 -165 20 -23 6 -16 -111 61 -58 38 -138 89 -178
115 -40 25 -107 69 -150 96 -42 28 -106 68 -142 89 -36 22 -71 47 -78 55 -54
67 -9 40 424 -251z m-214 -50 c12 -7 27 -17 32 -21 6 -4 85 -56 176 -114 302
-193 387 -252 393 -267 9 -24 2 -21 -82 34 -42 27 -172 109 -290 182 -127 79
-224 146 -239 166 -26 35 -24 39 10 20z m783 -341 c6 -6 -5 -1 -23 9 -18 10
-41 28 -50 38 -15 18 47 -23 73 -47z m-303 -165 l247 -157 70 -165 c38 -91 77
-185 86 -210 10 -25 23 -58 30 -75 29 -67 148 -412 160 -465 0 -3 15 -51 33
-107 52 -163 156 -583 186 -748 16 -83 27 -142 31 -165 3 -13 7 -42 10 -65 3
-22 8 -47 10 -55 4 -14 10 -57 21 -135 12 -89 15 -113 19 -145 2 -19 6 -53 9
-75 9 -68 15 -127 21 -210 4 -44 9 -93 11 -110 26 -211 25 -980 -1 -1275 -2
-25 -7 -79 -10 -120 -5 -69 -31 -292 -40 -350 -2 -14 -6 -45 -10 -70 -3 -25
-13 -88 -22 -140 -8 -52 -17 -104 -19 -115 -16 -105 -85 -433 -104 -495 -6
-19 -12 -46 -15 -60 -2 -14 -29 -114 -59 -223 -137 -491 -328 -985 -558 -1442
-72 -144 -218 -414 -268 -495 -147 -240 -254 -408 -282 -445 -4 -5 -57 -80
-118 -165 -60 -86 -118 -164 -127 -175 -10 -11 -32 -38 -48 -60 -17 -22 -35
-46 -42 -55 -7 -8 -35 -44 -63 -80 -45 -57 -116 -142 -145 -174 -11 -12 -122
-140 -170 -196 -42 -48 -468 -474 -535 -535 -603 -543 -1178 -939 -1860 -1280
-63 -31 -122 -61 -130 -66 -8 -5 -24 -13 -35 -18 -11 -5 -45 -20 -75 -34 -30
-14 -97 -43 -147 -65 l-93 -40 -182 63 c-292 100 -313 108 -316 110 -1 1 53
24 120 50 411 159 818 356 1168 563 121 72 409 256 487 313 34 24 71 51 83 59
26 17 200 145 215 157 6 4 64 51 130 103 66 52 122 97 125 101 3 3 39 35 80
70 186 158 237 206 465 434 156 156 281 291 427 460 70 81 56 65 216 270 209
268 445 622 615 921 301 531 542 1102 711 1689 25 88 48 169 50 180 2 11 11
45 20 75 8 30 17 66 20 80 2 14 13 63 24 110 20 81 69 327 77 380 2 14 6 39 9
55 2 17 7 48 11 70 3 23 7 50 9 61 2 12 7 45 11 74 4 29 8 61 10 71 2 10 7 53
10 96 4 43 9 81 11 84 1 3 6 48 10 100 3 51 7 101 9 109 27 139 26 969 -1
1266 -2 28 -6 73 -9 100 -2 27 -7 69 -10 94 -2 25 -7 68 -11 95 -11 98 -15
130 -19 155 -2 14 -7 45 -10 70 -25 197 -97 548 -170 825 -20 77 -38 148 -40
157 -15 68 -134 430 -188 573 -129 343 -307 741 -424 948 -18 33 -33 61 -33
64 0 7 47 -21 322 -195z m339 141 c13 -16 12 -17 -3 -4 -17 13 -22 21 -14 21
2 0 10 -8 17 -17z m135 -263 c63 -44 118 -80 121 -80 4 0 16 -8 27 -19 12 -10
76 -55 144 -101 67 -45 125 -86 128 -91 2 -5 -89 53 -203 129 -114 76 -236
155 -270 177 -54 34 -85 65 -67 65 3 0 57 -36 120 -80z m692 -651 c2 -5 8 -9
14 -9 6 0 27 -13 48 -30 21 -16 42 -30 48 -30 6 0 12 -4 14 -8 2 -4 46 -37 98
-73 108 -75 258 -180 310 -217 67 -49 136 -99 320 -233 175 -127 417 -305 450
-332 8 -7 62 -48 120 -91 110 -83 490 -379 525 -407 11 -10 56 -46 100 -80 44
-35 82 -66 85 -69 3 -3 64 -53 135 -111 72 -57 141 -114 155 -126 14 -12 84
-70 155 -129 108 -89 381 -322 421 -359 6 -5 22 -19 35 -30 13 -11 65 -56 114
-100 50 -44 105 -93 124 -110 40 -35 63 -56 122 -109 277 -250 408 -379 549
-536 47 -52 88 -97 91 -100 25 -22 471 -543 556 -650 7 -8 36 -44 65 -81 29
-36 64 -80 78 -98 14 -17 35 -44 48 -59 12 -15 62 -79 110 -142 47 -63 90
-116 94 -118 5 -2 8 -10 8 -17 0 -7 4 -15 8 -17 8 -3 206 -271 227 -306 6 -9
13 -19 16 -22 14 -11 283 -418 382 -577 532 -857 876 -1667 1012 -2382 25
-130 32 -174 41 -251 3 -24 7 -47 9 -50 25 -42 26 -806 0 -850 -1 -3 -6 -30
-9 -61 -6 -54 -9 -70 -21 -121 -3 -13 -10 -45 -15 -73 -6 -27 -16 -70 -24 -95
-8 -25 -24 -79 -36 -120 -31 -104 -103 -276 -164 -395 -57 -109 -78 -147 -86
-155 -3 -3 -35 -50 -72 -105 -182 -274 -476 -559 -778 -756 -105 -69 -170
-109 -176 -109 -3 0 -18 -8 -32 -19 -45 -32 -322 -167 -453 -221 -230 -95
-453 -170 -689 -232 -181 -47 -208 -53 -265 -63 -16 -3 -57 -12 -90 -20 -52
-12 -87 -19 -210 -40 -14 -3 -53 -10 -88 -16 -34 -6 -73 -12 -87 -14 -14 -2
-79 -11 -145 -20 -168 -23 -173 -24 -240 -30 -33 -3 -78 -8 -100 -10 -94 -11
-131 -14 -375 -30 -345 -23 -1095 -23 -1425 0 -69 4 -261 17 -315 20 -44 3
-129 10 -226 20 -27 2 -79 7 -117 10 -37 2 -84 7 -105 9 -20 3 -66 8 -102 11
-57 5 -150 16 -260 30 -19 2 -57 7 -85 10 -27 4 -61 8 -75 10 -14 2 -46 7 -72
10 -26 3 -80 10 -120 15 -40 6 -91 13 -113 15 -22 3 -62 10 -90 15 -49 9 -73
13 -165 25 -25 3 -52 7 -60 9 -55 10 -257 45 -305 51 -11 2 -31 5 -45 8 -14 3
-110 21 -215 41 -199 37 -224 42 -265 51 -14 3 -36 7 -49 10 -14 3 -68 13
-120 24 -53 11 -107 22 -121 25 -14 2 -45 9 -70 14 -25 6 -88 20 -140 32 -52
12 -122 28 -155 35 -33 8 -71 16 -85 19 -14 2 -52 11 -85 19 -33 9 -71 18 -85
21 -14 2 -169 41 -345 86 -363 92 -325 82 -430 110 -44 12 -88 23 -98 25 -10
2 -32 9 -50 15 -18 5 -144 42 -282 81 -137 38 -302 86 -365 106 -63 19 -124
37 -135 40 -11 3 -99 30 -195 60 -96 30 -218 68 -270 84 -186 58 -281 92 -273
99 4 4 60 31 123 60 333 153 759 392 1075 603 216 145 319 220 605 443 26 21
215 178 220 184 3 3 39 34 80 70 182 156 580 552 720 716 14 16 66 76 115 134
49 58 92 107 95 110 3 3 28 34 55 70 28 35 55 71 62 80 202 254 479 654 593
855 9 17 52 91 95 165 351 610 650 1350 825 2045 65 257 133 581 155 740 3 23
8 52 10 65 3 14 7 45 10 70 4 40 12 96 20 141 2 9 6 52 10 95 4 43 9 81 10 84
2 3 6 46 10 95 4 50 8 106 10 125 27 286 27 1010 0 1295 -2 22 -6 72 -10 110
-3 39 -8 94 -10 122 -3 29 -7 65 -9 80 -3 16 -7 53 -11 83 -3 30 -8 66 -10 80
-3 14 -7 45 -10 69 -3 23 -8 57 -10 75 -3 17 -8 45 -11 61 -2 17 -9 55 -14 85
-5 30 -12 71 -15 90 -12 77 -59 294 -96 450 -96 400 -233 825 -397 1227 l-21
52 352 -236 c194 -129 354 -240 355 -244z m-16195 -4896 c51 -43 109 -90 128
-105 19 -15 48 -38 64 -51 17 -14 66 -54 110 -89 43 -34 85 -74 92 -88 7 -14
31 -79 54 -145 44 -129 147 -392 181 -465 11 -25 38 -85 60 -135 115 -261 363
-722 499 -929 33 -48 59 -90 59 -91 0 -8 168 -252 269 -392 71 -98 310 -398
362 -455 19 -20 52 -59 74 -85 71 -85 176 -194 360 -378 186 -185 234 -231
344 -325 103 -88 166 -143 171 -149 3 -3 34 -28 70 -56 36 -27 67 -52 70 -55
3 -3 52 -42 110 -86 58 -43 107 -81 110 -84 3 -3 32 -23 64 -45 33 -22 64 -44
70 -50 30 -27 332 -224 487 -317 470 -284 1028 -540 1559 -715 74 -24 142 -46
150 -48 8 -2 78 -22 155 -45 77 -22 169 -47 205 -55 36 -9 79 -19 95 -24 39
-12 287 -65 445 -96 14 -3 45 -8 70 -11 25 -3 52 -7 60 -9 8 -2 35 -7 60 -10
25 -3 52 -8 60 -10 8 -2 40 -7 70 -10 30 -3 66 -8 80 -10 14 -3 51 -7 83 -10
32 -4 68 -8 79 -10 12 -3 62 -7 112 -10 50 -4 102 -8 116 -10 153 -26 997 -26
1235 -1 17 2 66 6 110 10 44 4 116 11 160 17 44 5 97 12 118 14 62 8 121 16
147 20 14 2 85 14 158 25 l132 21 270 -113 c148 -62 269 -116 270 -119 0 -5
-74 -23 -300 -74 -90 -20 -421 -79 -505 -89 -22 -3 -71 -10 -110 -15 -38 -5
-97 -13 -130 -16 -33 -3 -76 -8 -95 -10 -19 -3 -66 -7 -105 -10 -38 -3 -83 -8
-100 -10 -210 -27 -947 -27 -1270 -1 -22 2 -78 7 -125 11 -47 3 -96 8 -110 10
-14 1 -50 6 -80 9 -30 4 -91 12 -135 17 -44 6 -93 13 -108 15 -79 10 -117 16
-162 24 -27 5 -63 12 -80 15 -443 77 -871 190 -1330 351 -55 19 -109 39 -120
44 -18 7 -51 20 -65 25 -3 1 -14 5 -25 10 -11 4 -78 32 -150 61 -71 28 -159
65 -195 82 -36 16 -87 39 -115 52 -93 42 -420 207 -510 257 -140 78 -152 85
-280 163 -66 40 -130 78 -142 84 -13 6 -23 14 -23 19 0 4 -5 7 -10 7 -6 0 -16
5 -23 10 -7 6 -59 42 -117 80 -262 173 -538 383 -795 604 -199 172 -206 178
-445 416 -218 218 -281 283 -380 400 -54 63 -89 104 -145 167 -46 53 -191 239
-286 368 -49 66 -93 125 -99 132 -18 22 -227 337 -240 363 -7 14 -16 27 -20
30 -3 3 -45 70 -92 150 -234 397 -435 807 -585 1195 -72 184 -84 217 -134 365
-50 148 -169 550 -163 550 1 0 45 -35 97 -77z m21923 -361 c79 -110 187 -269
281 -412 52 -80 104 -157 114 -172 10 -15 19 -30 19 -33 0 -4 10 -21 23 -38
12 -18 27 -41 34 -52 77 -128 171 -286 184 -310 9 -16 46 -84 83 -150 172
-306 396 -795 497 -1085 105 -300 200 -638 225 -800 3 -19 7 -42 9 -50 3 -8 7
-33 10 -55 4 -22 8 -47 10 -55 2 -8 7 -42 11 -75 3 -33 8 -69 10 -79 2 -11 6
-53 9 -95 3 -42 8 -94 11 -116 5 -49 6 -391 0 -425 -2 -14 -7 -59 -10 -100 -8
-95 -22 -182 -50 -326 -18 -91 -92 -341 -106 -359 -5 -5 -9 -14 -10 -20 -3
-11 -6 -20 -40 -105 -26 -65 -137 -279 -156 -301 -8 -8 -14 -19 -14 -22 0 -8
-74 -116 -139 -202 -361 -481 -944 -867 -1691 -1118 -189 -64 -457 -140 -575
-163 -11 -2 -51 -11 -90 -19 -108 -24 -374 -72 -435 -80 -30 -3 -62 -8 -70
-10 -8 -2 -35 -7 -60 -10 -25 -3 -61 -7 -80 -10 -94 -12 -119 -15 -175 -20
-33 -3 -76 -7 -95 -10 -45 -6 -244 -22 -370 -30 -363 -23 -1092 -23 -1425 0
-22 1 -101 6 -175 10 -74 4 -142 8 -150 10 -8 2 -58 6 -110 9 -52 4 -111 9
-130 11 -19 2 -69 7 -110 10 -41 3 -93 8 -115 10 -22 3 -103 12 -180 20 -77 9
-156 18 -175 20 -19 3 -53 7 -75 10 -22 2 -56 7 -75 9 -19 3 -59 8 -89 12 -30
3 -61 7 -70 9 -9 1 -41 6 -71 10 -30 4 -64 9 -75 11 -10 2 -37 6 -60 9 -66 10
-464 74 -550 89 -216 39 -312 56 -335 61 -29 6 -22 5 -198 39 -73 14 -173 35
-223 46 -49 11 -107 23 -127 26 -20 3 -40 8 -43 10 -3 2 -19 5 -35 8 -17 3
-90 19 -163 36 -73 16 -143 32 -155 34 -11 3 -88 21 -171 40 -155 37 -191 46
-200 47 -2 0 -19 5 -37 10 -18 5 -114 30 -213 55 -99 25 -270 71 -380 101
-110 30 -225 62 -255 70 -50 13 -176 49 -365 105 -598 175 -1442 453 -1959
645 l-69 26 89 34 c49 19 114 44 144 55 l55 21 245 -81 c213 -71 768 -245 825
-259 11 -3 65 -19 120 -35 55 -17 114 -34 130 -38 17 -4 118 -32 225 -63 107
-30 247 -69 310 -85 63 -17 160 -43 215 -57 55 -15 107 -28 115 -30 8 -2 80
-20 160 -40 80 -20 156 -38 170 -41 14 -3 59 -13 100 -24 41 -10 116 -28 165
-39 50 -11 122 -28 160 -37 73 -17 95 -21 133 -28 12 -3 30 -7 40 -10 9 -3 28
-7 42 -10 14 -3 104 -21 200 -41 96 -20 186 -39 200 -41 14 -3 97 -19 185 -36
88 -16 171 -32 185 -34 14 -3 61 -11 105 -19 44 -8 94 -17 110 -19 45 -8 91
-15 128 -22 39 -7 51 -9 147 -23 41 -6 100 -16 130 -21 30 -5 75 -12 100 -15
25 -3 56 -7 69 -10 13 -2 49 -7 80 -11 31 -3 63 -8 71 -9 9 -2 43 -6 75 -10
33 -4 67 -9 76 -10 9 -2 40 -6 70 -10 30 -3 88 -10 129 -15 75 -9 125 -15 235
-25 33 -3 71 -8 85 -10 14 -2 66 -7 115 -10 50 -4 101 -8 115 -10 86 -12 544
-41 810 -51 107 -3 755 -3 875 0 114 4 339 16 385 21 19 2 78 7 130 10 52 4
106 8 120 10 35 5 113 13 190 21 36 3 73 8 84 10 10 2 44 6 75 10 31 3 63 7
71 9 16 3 90 14 130 20 24 4 172 29 233 40 15 3 37 7 50 9 43 8 264 58 381 87
189 48 348 98 631 199 162 58 477 210 647 311 133 80 312 201 375 254 7 5 26
21 43 35 299 239 548 540 729 882 36 69 140 304 146 332 1 6 5 18 8 26 17 45
72 234 81 280 57 285 67 381 71 655 3 258 -9 432 -45 645 -5 30 -12 73 -15 95
-3 22 -12 68 -20 102 -8 35 -17 78 -20 96 -15 87 -93 364 -154 547 -84 250
-168 463 -268 680 -49 107 -229 467 -257 516 -13 23 -38 68 -56 100 -17 32
-35 66 -40 74 -11 17 -154 260 -180 305 -9 17 -37 62 -62 100 -43 67 -85 144
-56 102 7 -10 31 -44 54 -75z m-21166 -239 c84 -65 159 -122 168 -128 10 -5
19 -13 22 -16 4 -5 239 -180 325 -243 11 -8 58 -43 105 -78 178 -132 581 -419
785 -560 45 -30 105 -72 135 -93 172 -121 1042 -694 1138 -750 9 -5 19 -12 22
-15 3 -3 37 -25 75 -48 39 -24 97 -60 130 -81 101 -63 455 -281 486 -299 16
-9 109 -65 206 -124 238 -143 632 -373 823 -481 284 -160 791 -438 1025 -562
50 -26 122 -64 160 -85 182 -97 423 -220 785 -401 423 -211 577 -286 950 -461
113 -54 449 -208 495 -228 51 -22 143 -64 224 -102 35 -16 82 -37 105 -46 22
-9 56 -24 75 -33 l34 -16 -44 -7 c-24 -3 -66 -9 -94 -12 -27 -3 -61 -7 -75 -9
-14 -3 -50 -7 -80 -10 -30 -3 -66 -8 -80 -10 -14 -3 -65 -7 -114 -11 -48 -3
-98 -7 -109 -10 -134 -25 -977 -25 -1237 1 -25 3 -71 7 -103 10 -32 2 -78 7
-103 10 -24 3 -65 7 -91 11 -68 7 -101 12 -158 20 -27 4 -59 8 -70 9 -11 1
-47 7 -80 13 -33 6 -78 14 -100 17 -22 3 -83 14 -135 25 -52 10 -106 21 -120
24 -14 2 -56 12 -95 21 -38 9 -80 19 -91 21 -12 2 -75 18 -140 35 -66 16 -126
32 -134 34 -44 10 -366 109 -405 125 -11 4 -63 22 -115 40 -352 120 -786 315
-1160 523 -132 73 -478 283 -490 297 -3 3 -29 21 -58 38 -30 18 -59 37 -65 43
-7 5 -73 53 -147 106 -74 53 -155 112 -180 132 -63 51 -66 53 -158 125 -45 36
-88 71 -96 78 -7 7 -26 24 -42 37 -93 78 -231 200 -294 261 -32 30 -88 85
-126 121 -132 127 -381 396 -494 533 -8 10 -22 26 -31 35 -22 23 -154 190
-235 298 -150 200 -394 560 -394 583 0 6 -4 10 -8 10 -5 0 -15 12 -23 27 -8
15 -31 57 -52 92 -98 162 -164 286 -282 526 -93 190 -200 429 -256 572 -37 96
-68 183 -64 183 2 0 72 -53 155 -117z m21644 -209 c3 -8 2 -12 -4 -9 -6 3 -10
10 -10 16 0 14 7 11 14 -7z m121 -170 c68 -98 356 -532 409 -617 50 -80 201
-337 236 -402 15 -27 50 -92 79 -143 67 -121 234 -463 301 -617 114 -262 186
-463 285 -785 13 -45 44 -161 50 -190 2 -8 10 -42 18 -75 43 -167 82 -424 102
-675 6 -68 6 -357 0 -425 -13 -173 -16 -201 -20 -215 -2 -8 -7 -33 -9 -55 -3
-22 -10 -60 -15 -85 -5 -25 -14 -67 -19 -95 -34 -163 -127 -427 -204 -579 -56
-110 -169 -298 -210 -351 -5 -5 -35 -45 -68 -87 -111 -143 -288 -323 -415
-424 -28 -21 -57 -45 -65 -52 -180 -154 -551 -364 -895 -507 -231 -96 -655
-228 -869 -271 -11 -2 -72 -15 -135 -28 -97 -21 -250 -49 -396 -72 -16 -2 -41
-7 -55 -9 -14 -3 -47 -7 -75 -10 -27 -3 -60 -7 -72 -9 -20 -4 -61 -9 -178 -21
-178 -18 -171 -17 -330 -30 -442 -33 -1087 -38 -1565 -10 -41 2 -118 7 -170
10 -52 3 -115 7 -140 10 -25 3 -81 7 -125 10 -87 6 -268 22 -430 39 -22 3 -67
7 -100 11 -55 5 -96 10 -165 20 -14 2 -50 7 -80 10 -30 3 -68 8 -85 10 -16 3
-48 7 -70 10 -54 6 -124 16 -155 21 -14 2 -45 6 -70 10 -25 3 -70 9 -100 14
-30 5 -73 12 -95 15 -23 3 -50 7 -60 9 -18 3 -65 11 -135 21 -14 3 -65 11
-115 20 -49 9 -101 18 -115 20 -14 2 -77 13 -140 25 -63 12 -126 24 -140 26
-21 4 -82 16 -200 39 -14 3 -38 8 -55 10 -16 3 -70 14 -120 25 -49 10 -102 21
-117 24 -32 7 -34 7 -193 42 -66 14 -129 27 -140 29 -38 8 -200 46 -235 56
-19 5 -120 29 -225 54 -104 25 -257 63 -340 84 -401 105 -379 99 -695 187 -69
19 -145 42 -170 50 -25 8 -94 28 -155 44 -60 17 -121 35 -135 40 -14 5 -79 25
-145 45 -425 130 -1379 446 -1490 494 -11 5 -58 22 -105 39 -352 125 -1130
423 -1130 433 0 3 57 24 127 47 l127 41 135 -50 c75 -28 145 -53 156 -56 11
-2 29 -9 40 -14 76 -34 969 -336 1285 -434 781 -243 1495 -440 2130 -586 96
-23 182 -43 190 -45 52 -12 349 -77 365 -80 11 -1 54 -10 95 -19 41 -9 86 -19
100 -21 14 -3 57 -11 95 -19 39 -8 81 -16 95 -19 51 -9 206 -38 225 -42 44 -9
486 -84 580 -99 55 -8 111 -17 125 -19 30 -6 221 -34 270 -40 19 -2 60 -7 90
-11 30 -3 62 -8 70 -10 8 -2 44 -7 80 -10 36 -4 76 -8 90 -10 36 -5 129 -16
170 -20 19 -2 62 -6 95 -9 33 -3 76 -8 95 -11 19 -3 64 -7 100 -9 36 -3 94 -8
130 -11 116 -11 144 -13 240 -20 52 -3 118 -8 145 -10 28 -2 113 -7 190 -10
77 -3 187 -8 245 -10 129 -6 731 -6 855 -1 172 8 360 18 395 21 19 2 80 6 135
10 55 4 102 8 105 10 3 1 45 6 94 10 50 4 98 8 107 10 10 2 44 6 76 10 33 3
70 7 84 10 32 5 179 27 204 30 11 2 49 8 85 15 36 7 79 14 95 17 174 27 718
160 815 200 8 3 20 7 25 9 45 11 271 94 382 140 483 201 874 454 1183 764 130
130 184 191 260 294 24 34 47 63 50 66 29 28 159 250 220 375 116 241 177 432
235 733 8 44 24 166 32 247 15 154 7 629 -12 720 -3 11 -7 45 -10 75 -6 67
-42 277 -49 288 -3 5 -7 26 -10 48 -18 134 -147 573 -244 829 -48 128 -72 189
-82 210 -5 11 -37 83 -71 160 -91 208 -285 594 -381 758 -15 26 -28 50 -28 52
0 6 -115 199 -156 262 -19 28 -34 56 -34 62 0 6 -4 11 -10 11 -5 0 -10 5 -10
11 0 5 -18 38 -41 72 -55 84 0 19 76 -89z m-20783 -3 c241 -160 373 -246 382
-250 4 -2 54 -33 110 -70 56 -36 111 -71 121 -78 11 -6 75 -47 143 -90 161
-103 163 -104 214 -134 146 -87 445 -270 454 -278 6 -5 29 -19 50 -30 21 -12
53 -30 69 -40 53 -32 307 -182 394 -232 46 -27 88 -49 92 -49 5 0 9 -4 9 -10
0 -5 4 -10 8 -10 4 0 95 -50 202 -111 107 -62 224 -127 260 -147 36 -19 70
-38 75 -42 6 -4 42 -24 80 -45 39 -21 104 -57 145 -80 93 -52 195 -108 280
-153 36 -19 97 -51 135 -72 322 -172 423 -225 660 -347 289 -148 712 -359 940
-468 367 -177 448 -215 450 -215 2 0 50 -22 107 -49 149 -70 224 -104 387
-177 79 -36 162 -73 185 -83 621 -282 1705 -724 2324 -948 l54 -19 -79 -24
c-43 -12 -109 -31 -146 -40 l-68 -18 -62 25 c-34 14 -75 31 -92 38 -16 7 -115
47 -220 90 -104 42 -203 83 -220 90 -16 7 -102 43 -190 80 -88 37 -178 76
-200 85 -22 10 -69 30 -105 45 -36 15 -87 38 -115 51 -27 12 -122 54 -210 92
-157 68 -196 85 -405 182 -58 27 -134 62 -170 78 -142 65 -400 186 -640 302
-208 101 -922 459 -1105 555 -155 81 -279 146 -360 190 -38 20 -108 58 -155
83 -47 24 -103 55 -125 67 -22 12 -65 36 -95 52 -138 74 -631 350 -688 385
-34 21 -64 38 -67 38 -2 0 -45 25 -96 55 -50 30 -93 55 -94 55 -2 0 -49 27
-105 60 -56 33 -106 60 -111 60 -5 0 -9 4 -9 9 0 5 -8 12 -17 15 -10 3 -27 12
-38 19 -26 15 -300 179 -323 192 -10 6 -90 55 -180 110 -89 55 -170 105 -180
110 -10 6 -74 45 -142 88 -69 43 -134 84 -144 90 -11 7 -76 48 -145 92 -69 45
-189 121 -266 170 -151 96 -857 566 -865 575 -3 4 -60 44 -127 89 -68 46 -123
86 -123 88 0 5 -6 9 152 -96z m348 -417 c0 -2 -9 0 -20 6 -11 6 -20 13 -20 16
0 2 9 0 20 -6 11 -6 20 -13 20 -16z m31 -21 c13 -16 12 -17 -3 -4 -17 13 -22
21 -14 21 2 0 10 -8 17 -17z m175 -114 c71 -47 190 -125 264 -174 74 -48 153
-99 175 -114 22 -15 52 -33 68 -41 15 -7 27 -17 27 -22 0 -4 5 -8 11 -8 5 0
47 -24 92 -53 526 -341 1630 -993 2232 -1317 44 -23 93 -50 110 -60 64 -36
275 -150 380 -205 61 -32 137 -72 170 -90 202 -109 1144 -583 1360 -685 127
-60 256 -121 355 -167 589 -277 1344 -608 1835 -805 83 -33 154 -64 158 -68 9
-8 -10 -13 -172 -45 l-84 -17 -91 40 c-50 23 -149 66 -221 98 -125 54 -352
156 -500 224 -38 18 -95 44 -125 57 -93 43 -436 205 -630 299 -200 96 -1026
510 -1131 567 -35 19 -118 63 -184 97 -66 35 -142 75 -170 90 -51 28 -118 64
-260 140 -44 24 -165 91 -270 148 -104 58 -215 118 -245 135 -30 16 -59 33
-65 37 -5 4 -30 19 -55 32 -54 30 -97 55 -193 109 -40 23 -97 55 -127 72 -30
16 -62 35 -70 41 -8 6 -24 16 -35 22 -11 5 -73 41 -138 80 -130 76 -125 74
-217 127 -36 21 -94 56 -129 77 -34 22 -64 40 -66 40 -2 0 -108 64 -237 143
-128 79 -244 150 -257 158 -14 8 -30 17 -35 22 -6 4 -123 78 -261 165 -371
234 -418 265 -810 527 -378 253 -457 307 -465 315 -3 3 -38 27 -77 54 -40 27
-73 51 -73 53 0 5 4 3 156 -98z m8035 -3770 c19 -6 43 -15 54 -19 20 -9 96
-35 308 -107 59 -20 104 -40 100 -43 -5 -4 -30 -15 -58 -24 -27 -10 -63 -24
-80 -31 -16 -7 -54 -20 -84 -30 -52 -17 -55 -17 -105 3 -73 29 -90 35 -96 36
-3 1 -87 33 -188 71 l-182 70 92 28 c51 15 109 34 128 41 44 18 68 19 111 5z
m-319 -224 c123 -47 232 -90 243 -94 11 -5 29 -12 39 -15 10 -4 17 -8 15 -10
-7 -6 -247 -76 -261 -76 -18 0 -521 209 -531 221 -4 5 -5 7 -1 5 3 -2 29 2 57
10 29 8 67 17 86 20 19 3 43 10 55 14 43 18 80 8 298 -75z"/>
<path d="M8600 19305 l0 -745 2355 0 2355 0 0 -4185 0 -4185 795 0 795 0 0
4185 0 4185 2290 0 2290 0 0 745 0 745 -5440 0 -5440 0 0 -745z"/>
<path d="M15400 15120 l0 -750 2040 0 2040 0 0 750 0 750 -2040 0 -2040 0 0
-750z"/>
<path d="M15400 10935 l0 -745 2040 0 2040 0 0 745 0 745 -2040 0 -2040 0 0
-745z"/>
</g>
</svg>
